<svg xmlns="http://www.w3.org/2000/svg" width="41" height="40" viewBox="0 0 41 40" xmlns:xlink="http://www.w3.org/1999/xlink">
  <defs>
    <rect id="a" width="41" height="40" rx="4"/>
    <filter id="b" width="200%" height="200%" x="-50%" y="-50%" filterUnits="objectBoundingBox">
      <feOffset in="SourceAlpha" result="shadowOffsetInner1"/>
      <feComposite in="shadowOffsetInner1" in2="SourceAlpha" operator="arithmetic" k2="-1" k3="1" result="shadowInnerInner1"/>
      <feColorMatrix values="0 0 0 0 0 0 0 0 0 0 0 0 0 0 0 0 0 0 0.5 0" in="shadowInnerInner1"/>
    </filter>
  </defs>
  <g fill="none" fill-rule="evenodd">
    <g transform="rotate(-180 20.5 20)">
      <use fill="#DEDCE0" xlink:href="#a"/>
      <use fill="black" filter="url(#b)" xlink:href="#a"/>
    </g>
    <path fill="#252627" d="M25.7570027,17.2318785 C26.0798024,17.5410498 26.0821936,18.0405691 25.7570027,18.3497404 L21.0847752,22.7681215 C20.7619755,23.0772928 20.2395181,23.0772928 19.9143273,22.7681215 L15.2420998,18.3497404 C14.9193001,18.0417227 14.9193001,17.5410498 15.2420998,17.2318785 C15.5660951,16.9227072 16.089748,16.9227072 16.4113522,17.2318785 C16.4113522,17.2318785 18.8488327,19.3913674 20.0675729,20.4711119 C20.2121635,20.599212 20.5013446,20.8554124 20.5013446,20.8554124 L24.5877503,17.2318785 C24.9117456,16.9227072 25.4353985,16.9227072 25.7570027,17.2318785 Z"/>
  </g>
</svg>
