<?xml version="1.0" encoding="utf-8"?>
<svg xmlns="http://www.w3.org/2000/svg"
	xmlns:xlink="http://www.w3.org/1999/xlink"
	width="7px" height="14px" viewBox="0 0 7 14">
<path fillRule="evenodd" d="M 7 4.53C 7 4.53 4.91 4.53 4.91 4.53 4.91 4.53 4.91 3.08 4.91 3.08 4.91 2.53 5.25 2.41 5.49 2.41 5.73 2.41 6.96 2.41 6.96 2.41 6.96 2.41 6.96 0.01 6.96 0.01 6.96 0.01 4.94-0 4.94-0 2.69-0 2.18 1.79 2.18 2.93 2.18 2.93 2.18 4.53 2.18 4.53 2.18 4.53 0.88 4.53 0.88 4.53 0.88 4.53 0.88 7 0.88 7 0.88 7 2.18 7 2.18 7 2.18 10.18 2.18 14 2.18 14 2.18 14 4.91 14 4.91 14 4.91 14 4.91 10.14 4.91 7 4.91 7 6.76 7 6.76 7 6.76 7 7 4.53 7 4.53Z" fill="rgb(255,255,255)"/></svg>