<?xml version="1.0" encoding="utf-8"?>
<svg xmlns="http://www.w3.org/2000/svg"
	xmlns:xlink="http://www.w3.org/1999/xlink"
	width="15px" height="14px" viewBox="0 0 15 14">
<path fillRule="evenodd" d="M 7.37 0C 7.37 0 9.8 4.4 9.8 4.4 9.8 4.4 14.74 5.35 14.74 5.35 14.74 5.35 11.3 9.01 11.3 9.01 11.3 9.01 11.92 14 11.92 14 11.92 14 7.37 11.87 7.37 11.87 7.37 11.87 2.81 14 2.81 14 2.81 14 3.44 9.01 3.44 9.01 3.44 9.01 0 5.35 0 5.35 0 5.35 4.94 4.4 4.94 4.4 4.94 4.4 7.37 0 7.37 0" fill="rgb(159,159,159)"/></svg>