<?xml version="1.0" encoding="utf-8"?>
<svg fill="#292e78" xmlns="http://www.w3.org/2000/svg"
	xmlns:xlink="http://www.w3.org/1999/xlink"
	width="55px" height="50px" viewBox="0 0 55 50">
<rect x="0" y="0" width="55" height="50" fill="#292e78" opacity="0.90"/><path fillRule="evenodd" d="M 34.99 25C 34.99 25 32.59 27.5 32.59 27.5 32.59 27.5 32.59 27.5 32.59 27.5 32.59 27.5 25.4 34.99 25.4 34.99 25.4 34.99 23 32.49 23 32.49 23 32.49 30.2 25 30.2 25 30.2 25 23 17.51 23 17.51 23 17.51 25.4 15.01 25.4 15.01 25.4 15.01 32.59 22.5 32.59 22.5 32.59 22.5 32.59 22.5 32.59 22.5 32.59 22.5 34.99 25 34.99 25Z" fill="rgb(255,255,255)"/></svg>