<?xml version="1.0" encoding="utf-8"?>
<svg xmlns="http://www.w3.org/2000/svg"
	xmlns:xlink="http://www.w3.org/1999/xlink"
	width="55px" height="50px" viewBox="0 0 55 50">
<rect x="0" y="0" width="55" height="50" fill="#292e78" opacity="0.90"/><path fillRule="evenodd" d="M 32.34 32.34C 32.34 32.34 29.84 34.83 29.84 34.83 29.84 34.83 22.35 27.34 22.35 27.34 22.35 27.34 22.35 27.34 22.35 27.34 22.35 27.34 19.85 24.84 19.85 24.84 19.85 24.84 22.35 22.35 22.35 22.35 22.35 22.35 22.35 22.35 22.35 22.35 22.35 22.35 29.84 14.85 29.84 14.85 29.84 14.85 32.34 17.35 32.34 17.35 32.34 17.35 24.85 24.84 24.85 24.84 24.85 24.84 32.34 32.34 32.34 32.34Z" fill="rgb(255,255,255)"/></svg>